<svg width="1680" height="2446" viewBox="0 0 1680 2446" fill="none" xmlns="http://www.w3.org/2000/svg">
<g clip-path="url(#clip0)">
<rect width="1680" height="2446" fill="black"/>
<path d="M-482.613 -74L4.41533 325.594M-482.613 1936L4.41533 1596.73M359 983.122L-655 911.761M359 983.122V854.392M359 983.122V1108.35M359 854.392L-655 512.979M359 854.392V733.358M359 733.358V616.522L305.742 572.825M359 733.358L-655 144.98M359 1108.35L-655 1349.72M359 1108.35V1231.49M359 1231.49V1349.72L305.742 1386.82M359 1231.49L-655 1654.75M305.742 1386.82V572.825M305.742 1386.82L227.958 1441.01M305.742 572.825L227.958 509.005M227.958 509.005V1441.01M227.958 509.005L136.859 434.261M227.958 1441.01L136.859 1504.47M136.859 1504.47V434.261M136.859 1504.47L4.41533 1596.73M136.859 434.261L4.41533 325.594M4.41533 325.594V1596.73" stroke="white"/>
<path d="M-506.307 -466L475 617.289V1351.15L-584 2321" stroke="white"/>
<path d="M-111.285 -621L607 618.404V1352.24L-238 2446" stroke="white"/>
<path d="M192 2694L723 1352.1V618.884L329.123 -751" stroke="white"/>
<path d="M849 2621.5V1355.94V622.2V-435" stroke="white"/>
<path d="M1452 2616L991 1359.11V625.586L1335.66 -481" stroke="white"/>
<path d="M1861 2365L1105 1356.8V621.061L1787.43 -470" stroke="white"/>
<path d="M1863.88 -102L1210 622.405V1355.91L2069 2179" stroke="white"/>
<path d="M1825.28 230L1690.87 336.912M1898.86 1737L1690.87 1597.41M1332 731.633V622.338L1408.64 561.386M1332 731.633L1825.28 449.99M1332 731.633V854.939M1332 854.939L1869.43 679.788M1332 854.939V983.15M1332 1233.27V1356.57L1385.95 1392.78M1332 1233.27L1943 1507.2M1332 1233.27V1109.96M1332 1109.96L1943 1228.36M1332 1109.96V983.15M1332 983.15L1943 948.82M1385.95 1392.78L1408.64 561.386M1385.95 1392.78L1472.84 1451.09M1408.64 561.386L1472.84 510.321M1472.84 510.321V1451.09M1472.84 510.321L1556.45 443.823M1472.84 1451.09L1556.45 1507.2M1556.45 1507.2V443.823M1556.45 1507.2L1690.87 1597.41M1556.45 443.823L1690.87 336.912M1690.87 336.912V1597.41" stroke="white"/>
<path d="M1210 1358L1768 1890" stroke="white"/>
<path d="M1335 1356H360" stroke="white"/>
<path d="M1382 1390H311" stroke="white"/>
<path d="M1472 1453H225" stroke="white"/>
<path d="M1559 1506H134" stroke="white"/>
<path d="M1688 1597H10" stroke="white"/>
<path d="M1793 1738H-55" stroke="white"/>
<path d="M1793 1738H-55" stroke="white"/>
<path d="M1793 1738H-55" stroke="white"/>
<path d="M1799 1936H-47" stroke="white"/>
<path d="M1793 2217H-55" stroke="white"/>
<path d="M1330 1232H355" stroke="white"/>
<path d="M1330 1110H355" stroke="white"/>
<path d="M1330 984H355" stroke="white"/>
<path d="M1330 858H355" stroke="white"/>
<path d="M1330 733H355" stroke="white"/>
<path d="M1334 622L355 615" stroke="white"/>
<path d="M1408 565L305 573" stroke="white"/>
<path d="M1471 509H230" stroke="white"/>
<path d="M1559 441L136 433" stroke="white"/>
<path d="M1688 336L6 328" stroke="white"/>
<path d="M1797 139H-159" stroke="white"/>
<path d="M851.354 1084.35C851.549 1084.16 851.549 1083.84 851.354 1083.65L848.172 1080.46C847.976 1080.27 847.66 1080.27 847.464 1080.46C847.269 1080.66 847.269 1080.98 847.464 1081.17L850.293 1084L847.464 1086.83C847.269 1087.02 847.269 1087.34 847.464 1087.54C847.66 1087.73 847.976 1087.73 848.172 1087.54L851.354 1084.35ZM725 1084.5H851V1083.5H725V1084.5Z" fill="black"/>
</g>
<defs>
<clipPath id="clip0">
<rect width="1680" height="2446" fill="white"/>
</clipPath>
</defs>
</svg>
