<svg width="520" height="658" viewBox="0 0 520 658" fill="none" xmlns="http://www.w3.org/2000/svg">
<path fill-rule="evenodd" clip-rule="evenodd" d="M263.241 260.82H286.876V251.826L260.672 251.951L263.241 260.82ZM260.152 251.954L262.72 260.82H239.038L234.008 252.078L260.152 251.954ZM260.528 251.452L286.876 251.326V241.32H257.594L260.528 251.452ZM257.073 241.32L260.008 251.454L233.721 251.579L227.819 241.32H257.073ZM257.449 240.82H286.876V225.834L253.001 225.462L257.449 240.82ZM252.479 225.456L256.928 240.82H227.532L218.477 225.082L252.479 225.456ZM252.856 224.96L286.876 225.334V206.823L247.567 206.7L252.856 224.96ZM247.046 206.698L252.333 224.954L218.188 224.579L207.83 206.576L247.046 206.698ZM247.422 206.199L286.876 206.323V169.32H236.742L247.422 206.199ZM236.221 169.32L246.901 206.198L207.542 206.075L186.397 169.32H236.221ZM236.597 168.82H286.876V124.32H223.71L236.597 168.82ZM223.189 124.32L236.077 168.82H186.109L160.508 124.32H223.189ZM223.565 123.82L187.706 0L187.226 0.139086L223.044 123.82H160.22L103.336 24.9456L102.902 25.195L159.643 123.82H93.1258V124.32H159.931L185.532 168.82H132.565L29.0578 53.903L28.6863 54.2376L131.892 168.82H94.1258V169.32H132.343L165.329 205.943L126.528 205.822L125.795 205.218L33.0961 128.877L32.7782 129.263L125.386 205.529V243.57L0.25164 170.689L0 171.121L125.386 244.148V283.278L0.205861 240.973L0.0457788 241.446L125.386 283.806V325.992L0.143436 317.145L0.108204 317.644L125.386 326.493V370.88L0.0677246 400.822L0.183916 401.308L125.386 371.394V406.587L0.0292118 459.109L0.222428 459.57L125.386 407.129V448.124L32.7939 512.865L33.0804 513.275L125.779 448.459L149.126 432.135V432.32H180.687L163.858 447.82H127.126V448.32H163.316L135.63 473.82H113.126V474.32H135.087L13.9565 585.886L14.2952 586.254L135.825 474.32H182.922L153.396 512.82H116.126V513.32H153.012L78.9274 609.918L79.3242 610.222L113.126 566.149V566.32H197.027L160.894 656.977L161.358 657.162L197.565 566.32H286.876V643.07H287.376V566.32H373.067L400.891 642.156L401.361 641.984L373.6 566.32H458.043L478.926 594.22L479.326 593.921L458.667 566.32H467.126V565.82H458.293L418.999 513.32H468.126V512.82H418.624L389.808 474.32H430.217L518.953 559.251L519.299 558.89L430.94 474.32H430.996L461.955 503.253L462.297 502.888L431.729 474.32H467.126V473.82H431.194L403.909 448.32H446.126V447.82H403.374L398.253 443.034L387.059 432.32H422.126V431.82H386.536L374.521 420.32H406.126V420.287L421.598 430.667L447.118 447.787L486.606 474.278L486.884 473.863L447.507 447.446V409.392L495.024 430.687L495.228 430.231L447.507 408.844V368.571L495.078 377.786L495.173 377.295L447.507 368.061V327.414L495.14 324.738L495.112 324.239L447.507 326.913V284.657L481.235 273.669L481.081 273.194L447.507 284.131V244.531L472.901 230.037L472.653 229.603L447.507 243.955V208.481L472.933 188.266L472.622 187.875L447.102 208.164L421.582 228.454L406.028 240.82H374.799L387.344 226.938L422.123 227.32L422.129 226.82L387.791 226.443L405.187 207.192L446.125 207.32L446.127 206.82L405.638 206.694L439.41 169.32H467.126V168.82H439.862L480.149 124.238L479.778 123.903L439.188 168.82H393.143L420.925 124.32H467.126V123.82H421.237L465.325 53.2027L464.901 52.9379L420.648 123.82H356.514L379.157 51.1447L378.68 50.9959L355.99 123.82H287.376V60.0695H286.876V123.82H223.565ZM287.376 124.32V168.82H341.97L355.835 124.32H287.376ZM356.358 124.32L342.494 168.82H392.553L420.335 124.32H356.358ZM392.241 169.32H342.338L330.767 206.46L368.98 206.579L392.241 169.32ZM368.668 207.078L330.611 206.959L324.756 225.75L356.791 226.102L368.668 207.078ZM357.376 226.109L369.256 207.08L404.515 207.19L387.124 226.436L357.376 226.109ZM356.481 226.599L324.601 226.249L320.061 240.82H347.602L356.481 226.599ZM348.192 240.82L357.066 226.605L386.677 226.931L374.125 240.82H348.192ZM347.29 241.32H319.905L316.832 251.184L341.205 251.068L347.29 241.32ZM341.796 251.065L347.879 241.32H373.674L364.968 250.954L341.796 251.065ZM340.892 251.569L316.676 251.684L313.83 260.82H335.116L340.892 251.569ZM335.705 260.82L341.483 251.566L364.514 251.457L356.052 260.82H335.705ZM334.876 261.32H313.674L313.376 262.278V282.82H334.876V261.32ZM313.306 260.82L316.152 251.687L287.376 251.824V260.82H313.306ZM287.376 261.32H313.15L312.887 262.166L312.876 262.202V262.24V282.82H287.376V261.721V261.32ZM286.876 261.32V261.721V282.82H263.376V261.322V261.32H286.876ZM287.376 251.324L316.308 251.186L319.382 241.32H287.376V251.324ZM287.376 240.82H319.538L324.079 226.243L287.376 225.84V240.82ZM287.376 225.34L324.235 225.745L330.088 206.958L287.376 206.824V225.34ZM287.376 206.324L330.243 206.458L341.814 169.32H287.376V206.324ZM335.393 261.32H355.601L354.94 262.051L354.876 262.122V262.219V282.82H335.376V261.348L335.393 261.32ZM356.274 261.32L355.376 262.315V282.82H378.876V262.529V262.408L378.97 262.333L392.82 251.322L365.191 251.453L356.726 260.82H380.126V261.32H356.274ZM365.645 250.951L393.125 250.82L393.126 251.078L393.52 250.765L405.399 241.32H374.347L365.645 250.951ZM404.966 206.692L369.568 206.581L392.83 169.32H438.736L404.966 206.692ZM126.126 206.138L126.125 206.32L126.348 206.321L150.595 226.289V258.252L125.886 243.861V205.94L126.126 206.138ZM127.137 206.323L165.781 206.444L181.754 224.179L149.129 223.82L149.123 224.32L182.209 224.684L196.744 240.82H169.026L168.343 240.257L151.003 225.978L127.137 206.323ZM168.847 241.32L182.739 252.761V276.973L168.434 268.642V241.32H168.847ZM169.633 241.32H197.194L206.551 251.709L183.125 251.82L183.127 252.32L206.999 252.207L214.758 260.82H193.312L193.285 260.798L183.148 252.45L169.633 241.32ZM192.876 261.32H192.126V260.82H192.525L183.239 253.173V277.264L192.779 282.82H192.876V261.32ZM193.376 261.32V282.82H214.876V261.32H193.376ZM215.376 260.82H238.461L233.433 252.081L207.67 252.203L215.312 260.688L215.376 260.759V260.82ZM207.221 251.706L233.146 251.582L227.242 241.32H197.867L207.221 251.706ZM197.417 240.82H226.955L217.897 225.076L182.889 224.691L197.417 240.82ZM182.434 224.186L217.607 224.573L207.252 206.574L166.456 206.446L182.434 224.186ZM166.004 205.945L206.964 206.073L185.82 169.32H133.016L166.004 205.945ZM215.376 261.32V282.82H238.876V261.541L238.749 261.32H215.376ZM239.326 261.32L239.343 261.35L239.376 261.408V261.474V282.82H262.876V261.357L262.865 261.32H239.326ZM239.376 283.32H262.876V306.82H239.376V283.32ZM215.376 283.32H238.876V306.82H215.376V283.32ZM193.376 283.32H214.876V306.82H193.376V306.435V283.32ZM192.126 283.32V283.019L183.239 277.843V302.83L192.876 306.086V283.456L192.644 283.32H192.126ZM286.876 283.32H263.376V306.82H286.876V283.32ZM287.376 306.82V283.32H312.876V306.82H287.376ZM313.376 306.82V283.32H334.876V306.82H313.376ZM335.376 306.82V283.32H354.876V306.82H335.376ZM355.376 306.82V283.32H378.876V306.672V306.82H355.376ZM262.876 307.32H239.376V330.82H262.876V307.32ZM238.876 307.32H215.376V330.82H238.876V307.32ZM214.876 307.32H193.376V330.82H214.876V307.32ZM192.876 306.82H192.126V307.32H192.876V330.76L183.239 330.079V303.357L192.876 306.614V306.82ZM378.876 307.32H355.376V330.82H378.876V307.32ZM354.876 307.32H335.376V330.82H354.876V307.32ZM334.876 307.32H313.376V330.82H334.876V307.32ZM312.876 307.32H287.376V330.82H312.876V307.32ZM286.876 307.32H263.376V330.82H286.876V307.32ZM239.376 331.32H262.876V354.82H239.376V331.32ZM215.376 331.32H238.876V354.82H215.376V331.32ZM193.376 331.32H214.876V354.82H193.376V331.32ZM192.126 331.32V331.208L183.239 330.58V357.058L192.126 354.935V354.82H192.604L192.876 354.755V331.32H192.126ZM286.876 331.32H263.376V354.82H286.876V331.32ZM287.376 354.82V331.32H312.876V354.82H287.376ZM313.376 354.82V331.32H334.876V354.82H313.376ZM335.376 354.82V331.32H354.876V354.82H335.376ZM355.376 354.82V331.32H378.876V354.82H355.376ZM262.876 355.32H239.376V376.82H262.876V355.32ZM238.876 355.32H215.376V376.82H238.876V355.32ZM214.876 355.32H193.376V376.82H214.876V355.32ZM192.663 355.32H192.876V376.82H192.126V377.32H192.876V378.31L183.239 382.348V357.572L192.663 355.32ZM378.876 355.32H355.376V376.82H378.876V355.32ZM354.876 355.32H335.376V376.82H354.876V355.32ZM334.876 355.32H313.376V376.82H334.876V355.32ZM312.876 355.32H287.376V376.82H312.876V355.32ZM286.876 355.32H263.376V376.82H286.876V355.32ZM239.376 377.32H262.876V401.106L262.193 402.82H238.388L239.324 401.599L239.376 401.532V401.447V377.32ZM215.376 377.32H238.876V401.362L237.758 402.82H213.454L215.295 401.124L215.376 401.049V400.94V377.32ZM193.376 377.32H214.876V400.83L212.716 402.82H193.126V403.32H212.173L207.287 407.82H184.126V408.32H206.744L194.259 419.82H167.126V420.32H193.716L181.23 431.82H149.577L150.988 430.833L168.327 418.709L183.132 408.357L193.269 401.27L193.376 401.195V401.065V378.477V377.32ZM286.876 377.32H263.376V401.154V401.202L263.358 401.247L262.731 402.82H286.876V401.675V377.32ZM287.376 401.675V377.32H312.876V402.218V402.263L312.891 402.304L313.08 402.82H287.376V401.675ZM313.376 402.174V377.32H334.876V401.677V401.761L334.926 401.827L335.668 402.82H313.613L313.376 402.174ZM335.376 401.594V377.32H354.876V402.102V402.209L354.953 402.283L355.514 402.82H336.293L335.376 401.594ZM355.376 401.995V377.32H378.876V378.471V401.872V402.006L378.987 402.08L380.089 402.82H356.237L355.376 401.995ZM237.375 403.32H212.911L208.025 407.82H233.923L237.375 403.32ZM234.554 407.82L238.005 403.32H261.994L260.2 407.82H234.554ZM233.54 408.32H207.482L194.997 419.82H224.72L233.54 408.32ZM225.35 419.82L234.17 408.32H260.001L255.417 419.82H225.35ZM224.337 420.32H194.454L181.968 431.82H215.517L224.337 420.32ZM216.147 431.82L224.967 420.32H255.218L250.635 431.82H216.147ZM215.134 432.32H181.425L164.596 447.82H203.246L215.134 432.32ZM203.876 447.82L215.764 432.32H250.435L244.257 447.82H203.876ZM202.863 448.32H164.054L136.368 473.82H183.306L202.863 448.32ZM183.936 473.82L203.493 448.32H244.058L233.895 473.82H183.936ZM183.553 474.32L154.026 512.82H218.35L233.695 474.32H183.553ZM153.642 513.32L113.378 565.82H197.226L218.151 513.32H153.642ZM373.416 565.82H457.669L418.374 513.32H354.154L373.416 565.82ZM353.622 513.32L372.884 565.82H287.376V513.32H353.622ZM353.971 512.82H418L389.184 474.32H339.846L353.971 512.82ZM339.313 474.32L353.438 512.82H287.376V474.32H339.313ZM339.662 473.82H388.81L369.724 448.32H330.306L339.662 473.82ZM329.774 448.32L339.13 473.82H287.376V448.32H329.774ZM330.123 447.82H369.349L357.748 432.32H324.436L330.123 447.82ZM323.903 432.32L329.59 447.82H287.376V432.32H323.903ZM324.253 431.82H357.374L348.767 420.32H320.033L324.253 431.82ZM319.501 420.32L323.72 431.82H287.376V420.32H319.501ZM319.85 419.82H348.392L339.785 408.32H315.631L319.85 419.82ZM315.098 408.32L319.317 419.82H287.376V408.32H315.098ZM315.447 407.82H339.411L336.043 403.32H313.796L315.447 407.82ZM313.264 403.32L314.915 407.82H287.376V403.32H313.264ZM336.667 403.32L340.035 407.82H359.841L355.026 403.32H336.667ZM355.759 403.32L360.574 407.82H360.738L356.036 403.32H355.759ZM356.76 403.32L361.461 407.82H387.542L380.126 402.844V403.32H356.76ZM388.126 408.211V408.32H361.984L373.999 419.82H405.43L389.23 408.952L388.126 408.211ZM372.681 419.82L360.376 408.32H340.409L349.017 419.82H372.681ZM349.391 420.32L357.998 431.82H385.521L373.216 420.32H349.391ZM386.056 432.32H358.373L369.974 447.82H402.53L397.908 443.396L386.056 432.32ZM403.052 448.32H370.348L389.434 473.82H429.695L403.052 448.32ZM430.418 473.82H430.461L428.608 472.087L430.418 473.82ZM361.109 408.32L367.552 414.341L361.26 408.32H361.109ZM286.876 513.32V565.82H197.764L218.689 513.32H286.876ZM218.889 512.82H286.876V474.32H234.234L218.889 512.82ZM286.876 448.32V473.82H234.433L244.596 448.32H286.876ZM244.796 447.82H286.876V432.32H250.973L244.796 447.82ZM286.876 420.32V431.82H251.173L255.756 420.32H286.876ZM255.956 419.82H286.876V408.32H260.539L255.956 419.82ZM286.876 403.32V407.82H260.738L262.532 403.32H286.876ZM151.095 226.701V258.543L167.934 268.35V240.568L151.095 226.701ZM192.876 378.852L183.239 382.89V407.673L192.876 400.935V378.852ZM182.739 408.022V383.099L168.434 389.093V418.025L182.739 408.022ZM167.934 418.374V389.302L151.095 396.358V430.148L167.934 418.374ZM150.595 430.498V396.567L125.886 406.92V447.775L150.595 430.498ZM125.886 406.378L150.595 396.025V365.371L125.886 371.275V406.378ZM125.886 370.761L150.595 364.857V328.274L125.886 326.529V370.761ZM125.886 326.028L150.595 327.773V292.325L125.886 283.975V326.028ZM125.886 283.447L150.595 291.797V258.83L125.886 244.439V283.447ZM151.095 259.121V291.966L167.934 297.657V268.929L151.095 259.121ZM168.434 269.22V297.826L182.739 302.661V277.552L168.434 269.22ZM182.739 303.188L168.434 298.354V329.033L182.739 330.044V303.188ZM182.739 330.545L168.434 329.534V360.595L182.739 357.177V330.545ZM182.739 357.691L168.434 361.109V388.551L182.739 382.557V357.691ZM167.934 388.76V361.229L151.095 365.252V395.816L167.934 388.76ZM151.095 364.738L167.934 360.715V329.499L151.095 328.309V364.738ZM151.095 327.808L167.934 328.998V298.185L151.095 292.494V327.808ZM447.007 208.878V244.24L421.987 258.52V228.771L447.007 208.878ZM421.487 229.168V258.805L406.114 267.579V241.391L421.487 229.168ZM421.487 259.381L406.114 268.155V297.617L421.487 292.608V259.381ZM405.614 241.788V267.865L393.272 274.909L393.922 251.084L405.614 241.788ZM405.614 268.44L393.256 275.494L392.531 302.042L405.614 297.779V268.44ZM393.411 251.491L392.764 275.199L379.376 282.84V262.649L393.411 251.491ZM392.748 275.784L379.376 283.416V306.328L392.027 302.206L392.748 275.784ZM379.376 330.739V306.853L392.012 302.737L391.266 330.072L379.376 330.739ZM391.767 330.043L392.517 302.572L405.614 298.305V329.266L391.767 330.043ZM406.114 329.238V298.142L421.487 293.134V328.374L406.114 329.238ZM421.987 328.346V292.971L447.007 284.82V326.941L421.987 328.346ZM447.007 244.816V284.294L421.987 292.445V259.096L447.007 244.816ZM421.987 328.847L447.007 327.442V367.965L421.987 363.118V328.847ZM421.987 363.627L447.007 368.474V408.62L421.987 397.406V363.627ZM421.987 397.954L447.007 409.168V447.111L421.987 430.326V397.954ZM421.487 397.73V429.99L406.114 419.677V390.841L421.487 397.73ZM405.614 390.616V419.341L389.623 408.613L390.301 383.753L405.614 390.616ZM389.807 383.532L389.131 408.284L379.376 401.739V378.857L389.807 383.532ZM389.822 382.991L379.376 378.309V355.373L390.517 357.531L389.822 382.991ZM390.53 357.024L379.376 354.864V331.24L391.252 330.573L390.53 357.024ZM391.028 357.121L391.753 330.545L405.614 329.767V359.946L391.028 357.121ZM406.114 360.043V329.738L421.487 328.875V363.021L406.114 360.043ZM406.114 360.552L421.487 363.53V397.182L406.114 390.293V360.552ZM405.614 360.456V390.069L390.316 383.212L391.014 357.627L405.614 360.456Z" fill="white"/>
</svg>
