<svg width="494" height="494" viewBox="0 0 494 494" fill="none" xmlns="http://www.w3.org/2000/svg">
<path fill-rule="evenodd" clip-rule="evenodd" d="M237.843 2H254.271V195.321L246.492 214.599L237.843 193.167V2ZM235.843 188.211V2V0H237.843H254.271H256.271V2V190.365L327.094 14.8549L327.842 13.0002L329.697 13.7487L344.931 19.896L346.786 20.6444L346.037 22.4991L273.606 201.995L409.303 66.4092L410.718 64.9956L412.131 66.4104L423.742 78.0311L425.156 79.4459L423.741 80.8595L279.667 224.815L468.997 143.778L470.836 142.991L471.623 144.83L478.087 159.932L478.874 161.771L477.035 162.558L301.471 237.703H491.972H493.972V239.703V256.13V258.13H491.972H287.557L475.179 338.437L477.018 339.224L476.231 341.062L469.767 356.164L468.98 358.003L467.141 357.216L303.527 287.186L431.032 414.586L432.447 416L431.033 417.415L419.422 429.035L418.009 430.45L416.594 429.036L276.564 289.121L349.991 471.085L350.739 472.939L348.885 473.688L333.651 479.835L331.796 480.583L331.048 478.729L256.271 293.421V491.972V493.972H254.271H237.843H235.843V491.972V295.575L162.685 476.872L161.937 478.727L160.082 477.978L144.848 471.831L142.993 471.083L143.742 469.228L217.171 287.26L77.1361 427.18L75.7213 428.593L74.3076 427.179L62.6965 415.558L61.2828 414.143L62.6976 412.729L190.205 285.327L26.59 355.358L24.7514 356.145L23.9644 354.306L17.5003 339.204L16.7134 337.365L18.552 336.578L201.832 258.13H2H0V256.13V239.703V237.703H2H187.918L16.6959 164.416L14.8572 163.629L15.6442 161.79L22.1082 146.688L22.8952 144.85L24.7339 145.637L214.065 226.674L69.9885 82.7163L68.5737 81.3026L69.9874 79.8878L81.5985 68.2671L83.0122 66.8523L84.427 68.266L220.129 203.856L147.695 24.3558L146.947 22.5011L148.802 21.7527L164.035 15.6054L165.89 14.857L166.639 16.7117L235.843 188.211ZM217.874 230.48L23.9469 147.475L17.4828 162.577L193.001 237.703H225.103L217.874 230.48ZM192.591 239.703H2V256.13H206.505L218.738 250.894L192.591 239.703ZM221.279 249.807L197.674 239.703H227.104L231.485 244.08L229.108 246.456L221.279 249.807ZM221.279 251.982L211.588 256.13H219.426L222.888 252.671L221.279 251.982ZM224.412 251.148L223.821 250.894L225.299 250.261L224.412 251.148ZM224.869 253.519L222.255 256.13H229.733L229.915 255.678L224.869 253.519ZM230.664 253.823L226.393 251.996L230.249 248.143L233.521 246.742L230.664 253.823ZM235.843 256.04L232.503 254.61L235.239 247.83L235.843 248.435V256.04ZM235.644 258.13L235.843 258.216V263.617L227.412 267.226L231.082 258.13H235.644ZM237.843 259.072L241.14 260.483L239.622 262L237.843 262.761V259.072ZM242.302 258.805L240.726 258.13H242.03L242.302 258.805ZM245.97 262.55L246.492 263.842L246.859 262.931L245.97 262.55ZM247.608 261.076L247.236 260.917L247.764 260.691L247.608 261.076ZM254.271 263.928L254.11 263.859L250.213 259.965L250.37 259.575L253.745 258.13H254.271V263.928ZM248.699 263.718L252.969 265.546L254.271 266.847V283.12L247.57 266.515L248.699 263.718ZM257.919 267.665L267.383 271.716L271.038 280.773L257.919 267.665ZM266.322 269.086L256.271 264.784V258.13H261.901L266.322 269.086ZM269.99 272.831L274.652 284.384L418.007 427.622L429.619 416.001L298.577 285.067L269.99 272.831ZM294.768 281.261L268.929 270.202L264.058 258.13H271.618L294.768 281.261ZM299.718 283.38L467.928 355.377L474.392 340.275L282.474 258.13H274.448L299.718 283.38ZM282.884 256.13H491.972V239.703H296.798L270.651 250.894L282.884 256.13ZM268.433 252.12L277.801 256.13H272.446L268.433 252.12ZM268.11 249.807L264.624 248.314L260.386 244.08L264.767 239.703H291.715L268.11 249.807ZM259.674 246.196L259.152 245.972L258.962 245.503L258.971 245.494L259.674 246.196ZM260.213 248.602L263.483 250.002L264.734 251.252L261.79 252.511L260.213 248.602ZM257.166 247.298L257.606 247.486L259.951 253.299L256.271 254.874V248.192L257.166 247.298ZM256.545 244.857L256.344 244.771L256.427 244.565L256.545 244.857ZM254.271 243.883L247.236 240.872L249.968 239.703H253.175L254.271 240.797V243.883ZM244.695 241.96L253.757 245.839L252.378 249.254L245.936 255.692L241.356 251.115L238.697 244.527L244.695 241.96ZM244.694 239.784L244.885 239.703H244.504L244.694 239.784ZM239.421 239.703L242.153 240.872L237.949 242.672L237.843 242.41V241.376L238.398 240.001L238.696 239.703H239.421ZM233.586 237.205L233.787 237.703H227.932L222.824 232.599L233.586 237.205ZM232.525 234.576L219.015 228.793L71.4022 81.3015L83.0133 69.6807L222.04 208.593L232.525 234.576ZM235.843 235.996L235.132 235.691L225.654 212.204L235.843 222.385V235.996ZM422.328 79.4447L274.717 226.934L261.209 232.716L271.694 206.732L410.716 67.824L422.328 79.4447ZM270.908 230.74L260.148 235.346L259.196 237.703H263.939L270.908 230.74ZM268.08 210.343L258.602 233.832L256.271 234.83V222.143L268.08 210.343ZM257.541 236.461L256.271 237.005V237.703H257.04L257.541 236.461ZM249.557 237.703L250.689 237.219L245.936 232.469L240.698 237.703H249.557ZM252.67 236.371L253.054 236.206L249.934 228.474L247.351 231.056L252.67 236.371ZM234.418 244.183L234.582 244.113L234.784 243.612L234.315 244.08L234.418 244.183ZM19.339 338.417L206.915 258.13H217.424L194.014 281.521L25.8031 353.519L19.339 338.417ZM64.1113 414.144L195.155 283.208L223.744 270.972L219.082 282.523L75.7224 425.765L64.1113 414.144ZM198.964 279.402L224.805 268.342L228.926 258.13H220.254L198.964 279.402ZM222.696 278.912L226.351 269.856L235.813 265.806L222.696 278.912ZM243.755 262.406L240.763 263.687L237.843 266.605V285.275L245.413 266.515L243.755 262.406ZM244.846 259.764L246.481 259.064L245.936 258.519L244.801 259.653L244.846 259.764ZM248.462 258.216L248.663 258.13H248.377L248.462 258.216ZM253.335 256.13L254.271 255.73V250.191L254.081 250.381L251.76 256.13H253.335ZM260.7 255.154L258.418 256.13H261.094L260.7 255.154ZM263.251 256.13L262.539 254.366L266.258 252.775L269.616 256.13H263.251ZM266.769 237.703H296.388L476.248 160.719L469.784 145.617L275.858 228.621L266.769 237.703ZM232.9 242.667L229.934 239.703H234.594L234.96 240.609L232.9 242.667ZM237.843 250.433L239.654 252.242L241.223 256.13H237.843V250.433ZM243.268 255.853L243.545 256.13H243.38L243.268 255.853ZM256.271 268.845V288.076L332.902 477.98L348.136 471.833L272.95 285.511L256.271 268.845ZM258.971 242.667L261.938 239.703H258.389L257.704 241.401L258.971 242.667ZM245.936 229.642L249.121 226.459L246.492 219.944L243.543 227.251L245.936 229.642ZM242.73 229.266L244.521 231.056L240.31 235.263L242.73 229.266ZM242.006 225.715L245.413 217.271L237.843 198.511V221.556L242.006 225.715ZM237.843 224.383L241.193 227.73L237.843 236.031V224.383ZM235.843 219.558L223.743 207.467L149.55 23.6074L164.784 17.4601L235.843 193.555V219.558ZM344.183 21.7506L269.992 205.606L256.271 219.316V195.71L328.949 15.6033L344.183 21.7506ZM254.271 200.666V221.314L250.658 224.924L247.57 217.271L254.271 200.666ZM254.271 224.141L251.471 226.938L254.271 233.876V224.141ZM145.596 469.976L220.785 283.649L235.843 268.603V290.231L160.83 476.124L145.596 469.976ZM249.604 256.13H248.326L250.467 253.992L249.604 256.13ZM246.492 269.187L237.843 290.619V491.972H254.271V288.465L246.492 269.187Z" fill="url(#paint0_radial)"/>
<defs>
<radialGradient id="paint0_radial" cx="0" cy="0" r="1" gradientUnits="userSpaceOnUse" gradientTransform="translate(246.986 246.986) rotate(90) scale(246.986)">
<stop stop-color="white"/>
<stop offset="1" stop-color="white" stop-opacity="0.2"/>
</radialGradient>
</defs>
</svg>
