<svg width="84" height="98" viewBox="0 0 84 98" fill="none" xmlns="http://www.w3.org/2000/svg">
<path fill-rule="evenodd" clip-rule="evenodd" d="M58.6068 0H25.0042V0.647268L24.6953 0.436544L1.17324 34.9248L0.791 35.4853L1.17045 36.0476L41.3268 95.5593L42.4844 97.2748L43.1091 95.3019L43.1479 95.1794L82.8298 36.0455L83.2057 35.4853L82.827 34.9269L59.4344 0.438666L59.1369 0H58.6068ZM45.2997 88.3835L80.1241 36.4883H61.7317L45.2997 88.3835ZM61.5721 34.4883H80.1128L58.0768 2H42.5136L61.5721 34.4883ZM40.2403 2H26.0498L3.89186 34.4883H21.308L40.2403 2ZM23.6228 34.4883L41.3789 4.01845L59.2534 34.4883H23.6228ZM23.2797 36.4883H59.6338L42.1211 91.7969L23.2797 36.4883ZM21.1669 36.4883H3.88051L38.7922 88.2273L21.1669 36.4883Z" fill="white"/>
</svg>
