<svg width="313" height="321" viewBox="0 0 313 321" fill="none" xmlns="http://www.w3.org/2000/svg">
<mask id="path-1-inside-1" fill="white">
<path fill-rule="evenodd" clip-rule="evenodd" d="M203.101 126.13L219.845 57.4834L166.509 102.703L145.532 50.5817L133.761 97.5254L85.2933 67.5826L111.862 132.387L42.0532 137.175L90.2348 167.372L53.3195 198.67L109.455 194.456L92.4313 262.347L146.569 217.044L168.11 269.587L179.41 223.261L227.045 253.115L200.681 187.609L271.029 182.329L223.294 152.839L259.863 122.237L203.101 126.13Z"/>
</mask>
<path fill-rule="evenodd" clip-rule="evenodd" d="M203.101 126.13L219.845 57.4834L166.509 102.703L145.532 50.5817L133.761 97.5254L85.2933 67.5826L111.862 132.387L42.0532 137.175L90.2348 167.372L53.3195 198.67L109.455 194.456L92.4313 262.347L146.569 217.044L168.11 269.587L179.41 223.261L227.045 253.115L200.681 187.609L271.029 182.329L223.294 152.839L259.863 122.237L203.101 126.13Z" fill="black"/>
<path d="M219.845 57.4834L221.788 57.9573L223.247 51.9772L218.552 55.9578L219.845 57.4834ZM203.101 126.13L201.158 125.656L200.51 128.312L203.238 128.125L203.101 126.13ZM166.509 102.703L164.654 103.45L165.689 106.021L167.803 104.229L166.509 102.703ZM145.532 50.5817L147.387 49.835L145.089 44.1247L143.592 50.0952L145.532 50.5817ZM133.761 97.5254L132.709 99.2269L135.036 100.664L135.701 98.0118L133.761 97.5254ZM85.2933 67.5826L86.3445 65.8811L81.1079 62.6459L83.4428 68.3413L85.2933 67.5826ZM111.862 132.387L111.998 134.382L114.763 134.193L113.712 131.628L111.862 132.387ZM42.0532 137.175L41.9164 135.179L35.7754 135.6L40.9911 138.869L42.0532 137.175ZM90.2348 167.372L91.5282 168.897L93.6137 167.129L91.2969 165.677L90.2348 167.372ZM53.3195 198.67L52.0261 197.144L47.3311 201.125L53.4692 200.664L53.3195 198.67ZM109.455 194.456L111.395 194.943L112.069 192.254L109.305 192.462L109.455 194.456ZM92.4313 262.347L90.4914 261.861L88.9942 267.831L93.7148 263.881L92.4313 262.347ZM146.569 217.044L148.419 216.285L147.382 213.755L145.285 215.51L146.569 217.044ZM168.11 269.587L166.26 270.345L168.595 276.041L170.053 270.061L168.11 269.587ZM179.41 223.261L180.472 221.566L178.124 220.094L177.467 222.787L179.41 223.261ZM227.045 253.115L225.983 254.81L231.199 258.079L228.901 252.369L227.045 253.115ZM200.681 187.609L200.531 185.615L197.805 185.819L198.826 188.356L200.681 187.609ZM271.029 182.329L271.178 184.323L277.316 183.862L272.08 180.627L271.029 182.329ZM223.294 152.839L222.011 151.305L219.885 153.083L222.243 154.54L223.294 152.839ZM259.863 122.237L261.147 123.771L265.867 119.821L259.726 120.242L259.863 122.237ZM217.902 57.0094L201.158 125.656L205.044 126.604L221.788 57.9573L217.902 57.0094ZM167.803 104.229L221.138 59.0089L218.552 55.9578L165.216 101.178L167.803 104.229ZM143.676 51.3284L164.654 103.45L168.365 101.957L147.387 49.835L143.676 51.3284ZM135.701 98.0118L147.472 51.0681L143.592 50.0952L131.821 97.0389L135.701 98.0118ZM84.2422 69.2841L132.709 99.2269L134.812 95.8239L86.3445 65.8811L84.2422 69.2841ZM113.712 131.628L87.1438 66.8239L83.4428 68.3413L110.011 133.146L113.712 131.628ZM42.19 139.17L111.998 134.382L111.725 130.392L41.9164 135.179L42.19 139.17ZM91.2969 165.677L43.1153 135.48L40.9911 138.869L89.1727 169.066L91.2969 165.677ZM54.6129 200.195L91.5282 168.897L88.9414 165.846L52.0261 197.144L54.6129 200.195ZM109.305 192.462L53.1698 196.675L53.4692 200.664L109.605 196.451L109.305 192.462ZM94.3713 262.834L111.395 194.943L107.515 193.97L90.4914 261.861L94.3713 262.834ZM145.285 215.51L91.1478 260.813L93.7148 263.881L147.852 218.578L145.285 215.51ZM169.961 268.828L148.419 216.285L144.718 217.802L166.26 270.345L169.961 268.828ZM177.467 222.787L166.167 269.113L170.053 270.061L181.353 223.734L177.467 222.787ZM228.107 251.421L180.472 221.566L178.348 224.955L225.983 254.81L228.107 251.421ZM198.826 188.356L225.19 253.862L228.901 252.369L202.536 186.862L198.826 188.356ZM270.879 180.334L200.531 185.615L200.831 189.603L271.178 184.323L270.879 180.334ZM222.243 154.54L269.978 184.03L272.08 180.627L224.345 151.137L222.243 154.54ZM258.58 120.703L222.011 151.305L224.578 154.372L261.147 123.771L258.58 120.703ZM203.238 128.125L260 124.232L259.726 120.242L202.964 124.134L203.238 128.125Z" fill="white" mask="url(#path-1-inside-1)"/>
</svg>
